<?xml version="1.0" standalone="no"?><!DOCTYPE svg PUBLIC "-//W3C//DTD SVG 1.1//EN" "http://www.w3.org/Graphics/SVG/1.1/DTD/svg11.dtd"><svg t="1657420240116" class="icon" viewBox="0 0 1024 1024" version="1.1" xmlns="http://www.w3.org/2000/svg" p-id="2100" xmlns:xlink="http://www.w3.org/1999/xlink" width="48" height="48"><defs><style type="text/css"></style></defs><path d="M874.048 149.952c-199.936-199.936-524.128-199.936-724.096 0s-199.936 524.128 0 724.096c199.936 199.936 524.128 199.936 724.096 0s199.936-524.128 0-724.096z m-113.152 565.696a32 32 0 0 1-45.248 45.248L512 557.248l-203.648 203.648a31.904 31.904 0 0 1-45.248 0 31.968 31.968 0 0 1 0-45.248L466.752 512 263.104 308.352a31.968 31.968 0 1 1 45.248-45.248L512 466.752l203.648-203.648a32 32 0 0 1 45.248 45.248L557.248 512l203.648 203.648z" fill="" p-id="2101"></path></svg>