<?xml version="1.0" standalone="no"?><!DOCTYPE svg PUBLIC "-//W3C//DTD SVG 1.1//EN" "http://www.w3.org/Graphics/SVG/1.1/DTD/svg11.dtd"><svg t="1655536543780" class="icon" viewBox="0 0 1159 1024" version="1.1" xmlns="http://www.w3.org/2000/svg" p-id="11096" xmlns:xlink="http://www.w3.org/1999/xlink" width="226.3671875" height="200"><defs><style type="text/css"></style></defs><path d="M563.2 864c-5.6 3.2-12 4-17.6 0.8-4-1.6-99.2-43.2-195.2-121.6C220.8 637.6 152 516 152 391.2c0-103.2 53.6-189.6 144-229.6 85.6-37.6 185.6-24.8 260 33.6 88-58.4 192-69.6 274.4-28.8 80.8 40.8 127.2 122.4 127.2 224 0 119.2-68.8 239.2-198.4 346.4-92.8 77.6-184 121.6-193.6 126.4-1.6 0-2.4 0-2.4 0.8z" fill="#d93f30" p-id="11097"></path></svg>