<?xml version="1.0" standalone="no"?><!DOCTYPE svg PUBLIC "-//W3C//DTD SVG 1.1//EN" "http://www.w3.org/Graphics/SVG/1.1/DTD/svg11.dtd"><svg t="1655536568852" class="icon" viewBox="0 0 1024 1024" version="1.1" xmlns="http://www.w3.org/2000/svg" p-id="11342" xmlns:xlink="http://www.w3.org/1999/xlink" width="200" height="200"><defs><style type="text/css"></style></defs><path d="M822.39806 634.485273a37.289295 37.289295 0 0 0-32.462236 19.104877h-0.396012c-54.22146 105.296235-163.970149 177.498756-290.340615 177.498756-114.993164 0-216.104522-59.936869-274.26469-150.056233l53.386625 10.874261a37.460543 37.460543 0 0 0 14.952108-73.411961l-136.33497-27.763614a37.364216 37.364216 0 0 0-33.735895 9.996613c-2.782783 2.739971-5.019713 6.015093-6.860631 9.55779-1.551937 3.028952-2.868407 6.207747-3.574806 9.696929l-27.763614 136.334971a37.44984 37.44984 0 0 0 73.390555 14.952108l8.508895-41.698936c72.138303 106.441457 193.992098 176.449861 332.296423 176.449861 153.395572 0 286.369797-86.23417 353.905805-212.700963 1.584046-2.258336 2.921922-4.698622 3.970818-7.320861 0.417417-0.792023 0.899053-1.56264 1.295064-2.365366l-0.460229-0.288981c1.145222-3.617618 1.947948-7.395782 1.947948-11.388005a37.460543 37.460543 0 0 0-37.460543-37.471246zM871.631917 223.532412a37.428434 37.428434 0 0 0-44.171332 29.219224l-8.508895 41.698936c-72.138303-106.441457-193.992098-176.449861-332.296423-176.449861-153.395572 0-286.369797 86.23417-353.905805 212.700963a36.026339 36.026339 0 0 0-3.970818 7.320861c-0.417417 0.792023-0.877647 1.56264-1.295064 2.365366l0.460229 0.288981a37.546167 37.546167 0 0 0-1.947948 11.388005c0 20.699626 16.760917 37.460543 37.460543 37.460543a37.289295 37.289295 0 0 0 32.462236-19.104877h0.396012c54.22146-105.296235 163.970149-177.498756 290.340615-177.498756 114.993164 0 216.104522 59.915463 274.26469 150.056233l-53.386625-10.874261a37.460543 37.460543 0 0 0-14.952108 73.411962l136.334971 27.763613a37.364216 37.364216 0 0 0 33.735894-9.996613c2.782783-2.739971 5.019713-6.015093 6.860631-9.55779 1.551937-3.028952 2.868407-6.207747 3.574806-9.696929l27.763614-136.334971a37.439137 37.439137 0 0 0-29.219223-44.160629z" fill="#ffcd32" p-id="11343"></path></svg>