<?xml version="1.0" standalone="no"?><!DOCTYPE svg PUBLIC "-//W3C//DTD SVG 1.1//EN" "http://www.w3.org/Graphics/SVG/1.1/DTD/svg11.dtd"><svg t="1655536519417" class="icon" viewBox="0 0 1024 1024" version="1.1" xmlns="http://www.w3.org/2000/svg" p-id="10894" xmlns:xlink="http://www.w3.org/1999/xlink" width="200" height="200"><defs><style type="text/css"></style></defs><path d="M618.666667 704a42.666667 42.666667 0 0 1-42.666667-42.666667V362.666667a42.666667 42.666667 0 0 1 85.333333 0v298.666666a42.666667 42.666667 0 0 1-42.666666 42.666667z" p-id="10895" fill="#ffcd32"></path><path d="M405.333333 704a42.666667 42.666667 0 0 1-42.666666-42.666667V362.666667a42.666667 42.666667 0 0 1 85.333333 0v298.666666a42.666667 42.666667 0 0 1-42.666667 42.666667z" p-id="10896" fill="#ffcd32"></path><path d="M512 960a448 448 0 1 1 400.853333-248.106667 42.666667 42.666667 0 0 1-76.373333-38.4A355.626667 355.626667 0 0 0 874.666667 512a362.666667 362.666667 0 1 0-362.666667 362.666667 355.626667 355.626667 0 0 0 161.493333-38.186667 42.666667 42.666667 0 0 1 38.4 76.373333A448 448 0 0 1 512 960z" p-id="10897" fill="#ffcd32"></path></svg>