<?xml version="1.0" standalone="no"?><!DOCTYPE svg PUBLIC "-//W3C//DTD SVG 1.1//EN" "http://www.w3.org/Graphics/SVG/1.1/DTD/svg11.dtd"><svg t="1655554417332" class="icon" viewBox="0 0 1024 1024" version="1.1" xmlns="http://www.w3.org/2000/svg" p-id="2602" xmlns:xlink="http://www.w3.org/1999/xlink" width="200" height="200"><defs><style type="text/css"></style></defs><path d="M554.666667 703.701333C554.666667 786.218667 621.781333 853.333333 704.298667 853.333333s149.632-67.114667 149.632-149.632c0-7.552-1.152-14.805333-2.261334-22.058666H853.333333V256h85.333334V170.666667h-128a42.666667 42.666667 0 0 0-42.666667 42.666666v355.541334a147.84 147.84 0 0 0-63.701333-14.762667A149.76 149.76 0 0 0 554.666667 703.701333z m149.632-64.298666c35.456 0 64.298667 28.842667 64.298666 64.298666S739.754667 768 704.298667 768 640 739.157333 640 703.701333s28.842667-64.298667 64.298667-64.298666zM85.333333 213.333333h597.333334v85.333334H85.333333z" fill="#E1CD31" p-id="2603"></path><path d="M85.333333 384h597.333334v85.333333H85.333333z m0 170.666667h384v85.333333H85.333333z m0 170.666666h384v85.333334H85.333333z" fill="#E1CD31" p-id="2604"></path></svg>