<?xml version="1.0" standalone="no"?><!DOCTYPE svg PUBLIC "-//W3C//DTD SVG 1.1//EN" "http://www.w3.org/Graphics/SVG/1.1/DTD/svg11.dtd"><svg t="1655536599225" class="icon" viewBox="0 0 1024 1024" version="1.1" xmlns="http://www.w3.org/2000/svg" p-id="11835" xmlns:xlink="http://www.w3.org/1999/xlink" width="200" height="200"><defs><style type="text/css"></style></defs><path d="M512 981.333333a469.333333 469.333333 0 1 1 469.333333-469.333333 469.333333 469.333333 0 0 1-469.333333 469.333333z m0-853.333333a384 384 0 1 0 384 384 384 384 0 0 0-384-384z" p-id="11836" fill="#ffcd32"></path><path d="M682.666667 768a42.666667 42.666667 0 0 1-30.293334-12.373333l-213.333333-213.333334a42.666667 42.666667 0 0 1 0-60.586666l213.333333-213.333334a42.666667 42.666667 0 1 1 60.586667 60.586667L529.493333 512l183.466667 183.04a42.666667 42.666667 0 0 1 0 60.586667A42.666667 42.666667 0 0 1 682.666667 768zM341.333333 725.333333a42.666667 42.666667 0 0 1-42.666666-42.666666V341.333333a42.666667 42.666667 0 0 1 85.333333 0v341.333334a42.666667 42.666667 0 0 1-42.666667 42.666666z" p-id="11837" fill="#ffcd32"></path></svg>