<?xml version="1.0" standalone="no"?><!DOCTYPE svg PUBLIC "-//W3C//DTD SVG 1.1//EN" "http://www.w3.org/Graphics/SVG/1.1/DTD/svg11.dtd"><svg t="1655536340588" class="icon" viewBox="0 0 1024 1024" version="1.1" xmlns="http://www.w3.org/2000/svg" p-id="10247" xmlns:xlink="http://www.w3.org/1999/xlink" width="200" height="200"><defs><style type="text/css"></style></defs><path d="M870.144 713.142857l-41.947429-41.910857a18.285714 18.285714 0 0 1 25.892572-25.892571l73.142857 73.142857a18.285714 18.285714 0 0 1 0 25.892571l-73.142857 73.142857a18.285714 18.285714 0 0 1-25.892572-25.892571l41.947429-41.910857h-108.434286a91.428571 91.428571 0 0 1-64.621714-26.770286l-124.891429-124.854857a18.285714 18.285714 0 0 1 25.892572-25.892572l124.854857 124.891429a54.857143 54.857143 0 0 0 38.765714 16.054857h108.434286z m0-438.857143l-41.947429-41.910857a18.285714 18.285714 0 0 1 25.892572-25.892571l73.142857 73.142857a18.285714 18.285714 0 0 1 0 25.892571l-73.142857 73.142857a18.285714 18.285714 0 0 1-25.892572-25.892571L870.144 310.857143h-108.434286a54.857143 54.857143 0 0 0-38.765714 16.091428L326.912 722.907429a91.428571 91.428571 0 0 1-64.621714 26.770285H109.714286a18.285714 18.285714 0 1 1 0-36.571428h152.576a54.857143 54.857143 0 0 0 38.765714-16.091429L697.088 301.092571a91.428571 91.428571 0 0 1 64.621714-26.770285h108.434286zM109.714286 310.857143a18.285714 18.285714 0 0 1 0-36.571429h152.576a91.428571 91.428571 0 0 1 64.621714 26.770286l124.891429 124.854857a18.285714 18.285714 0 0 1-25.892572 25.892572L301.056 326.912a54.857143 54.857143 0 0 0-38.765714-16.054857H109.714286z" p-id="10248" fill="#ffcd32"></path></svg>