<?xml version="1.0" standalone="no"?><!DOCTYPE svg PUBLIC "-//W3C//DTD SVG 1.1//EN" "http://www.w3.org/Graphics/SVG/1.1/DTD/svg11.dtd"><svg t="1655536400576" class="icon" viewBox="0 0 1024 1024" version="1.1" xmlns="http://www.w3.org/2000/svg" p-id="10694" xmlns:xlink="http://www.w3.org/1999/xlink" width="200" height="200"><defs><style type="text/css"></style></defs><path d="M512 938.666667C276.352 938.666667 85.333333 747.648 85.333333 512S276.352 85.333333 512 85.333333s426.666667 191.018667 426.666667 426.666667-191.018667 426.666667-426.666667 426.666667z m0-42.666667a384 384 0 1 0 0-768 384 384 0 0 0 0 768z m68.266667-621.866667l162.133333 157.866667c4.266667 4.266667 8.533333 12.8 8.533333 21.333333s-4.266667 17.066667-8.533333 21.333334c-12.8 12.8-25.6 12.8-38.4 0l-115.2-115.2v371.2c0 12.8-8.533333 25.6-25.6 25.6-8.533333 0-17.066667-4.266667-21.333333-8.533334v-473.6c12.8-12.8 25.6-12.8 38.4 0z m-140.8 21.333334c0-17.066667 12.8-29.866667 25.6-29.866667 8.533333 0 17.066667 4.266667 21.333333 8.533333v477.866667c-12.8 12.8-25.6 12.8-38.4 0l-162.133333-162.133333c-4.266667-8.533333-8.533333-12.8-8.533334-21.333334s4.266667-17.066667 8.533334-21.333333c12.8-12.8 29.866667-12.8 38.4 0l115.2 115.2v-366.933333z" p-id="10695" fill="#ffcd32"></path></svg>